inDegrees=yes
name=ik_lifting_orientations
DataType=double
version=3
OpenSimVersion=4.5-2024-01-10-34fd6af
endheader
time	pelvis_tilt	pelvis_list	pelvis_rotation	pelvis_tx	pelvis_ty	pelvis_tz	hip_flexion_r	hip_adduction_r	hip_rotation_r	knee_angle_r	knee_angle_r_beta	ankle_angle_r	subtalar_angle_r	mtp_angle_r	hip_flexion_l	hip_adduction_l	hip_rotation_l	knee_angle_l	knee_angle_l_beta	ankle_angle_l	subtalar_angle_l	mtp_angle_l	lumbar_extension	lumbar_bending	lumbar_rotation	arm_flex_r	arm_add_r	arm_rot_r	elbow_flex_r	pro_sup_r	wrist_flex_r	wrist_dev_r	arm_flex_l	arm_add_l	arm_rot_l	elbow_flex_l	pro_sup_l	wrist_flex_l	wrist_dev_l
1.12	0.02529940912431933	0.00833078774342247	2.580456558965561	0	0.9399999999999999	0	44.87735204285354	-10.00015908949912	0	60.08296364094907	1.048645539890601	-5.00000942977285	0	0	44.87735204285354	-10.00015908949912	0	60.08296364094907	1.048645539890601	-5.00000942977285	0	0	-0.04473331714784758	-0.006532901234292656	-0.01277671704621859	1.298307355293645	-5.871292669079692	-2.835812295780241	53.75204439627993	44.9998838837571	0	0	0	-14.23286324310874	0	75.08605601146374	44.9998838837571	0	0
1.13	0.02187196108302987	0.003567580828581673	2.583326967766686	0	0.9399999999999999	0	44.87738524515481	-10.00015893902207	0	60.08294604162957	1.04864523272453	-5.000009417955409	0	0	44.87738524515481	-10.00015893902207	0	60.08294604162957	1.04864523272453	-5.000009417955409	0	0	-0.03825836301430512	-0.005694010572930096	-0.01137590240776911	1.289756016002551	-5.877946028030446	-2.989166082444781	54.83622747427905	44.99988397082119	0	0	0	-14.23296956768629	0	75.08603276281529	44.99988397082119	0	0
1.14	0.03230868982883255	0.004421537690694637	2.586165975266697	0	0.9399999999999999	0	44.87814352863187	-10.00015659390006	0	60.08243572676537	1.048636326049928	-5.000009249285087	0	0	44.87814352863187	-10.00015659390006	0	60.08243572676537	1.048636326049928	-5.000009249285087	0	0	-0.04983023921975997	-0.005789762986009727	-0.01517080354515212	1.286981206933601	-5.932269865138529	-3.408846415880151	57.30174299326745	44.99988543483573	0	0	0	-14.23586183800291	0	75.08550180256543	44.99988543483573	0	0
1.15	0.02260447150926142	0.003053302535112832	2.583360293647683	0	0.9399999999999999	0	44.87817645909243	-10.000156446049	0	60.08241826936004	1.048636021360726	-5.000009237711198	0	0	44.87817645909243	-10.000156446049	0	60.08241826936004	1.048636021360726	-5.000009237711198	0	0	-0.03868995698080149	-0.005436517235302246	-0.01150646364323846	1.282616837691551	-5.929157591163705	-3.559199005844551	58.39201453619856	44.99988552058595	0	0	0	-14.23596756542853	0	75.08547874426205	44.99988552058595	0	0
1.16	0.02387597340939901	0.01248263021370956	2.58141677343626	0	0.9399999999999999	0	44.87820700005146	-10.0001563089347	0	60.08240208539655	1.048635738897277	-5.000009226979536	0	0	44.87820700005146	-10.0001563089347	0	60.08240208539655	1.048635738897277	-5.000009226979536	0	0	-0.03843043577518962	-0.009395837018855158	-0.01071378780352	1.396860068130646	-6.469504515451318	-3.535933344572627	59.46355597137843	44.99988560011593	0	0	0	-14.23606560053242	0	75.08545735911638	44.99988560011593	0	0
1.17	0.02848404847758814	0.004224616940839154	2.586382914159492	0	0.9399999999999999	0	44.87823977210694	-10.00015616199677	0	60.08238470908532	1.048635435623434	-5.000009215483688	0	0	44.87823977210694	-10.00015616199677	0	60.08238470908532	1.048635435623434	-5.000009215483688	0	0	-0.04982858015917583	-0.006154682856924369	-0.01582881235528298	1.393422854578696	-6.498008906485016	-3.815263305764473	60.82691676784383	44.99988568537015	0	0	0	-14.236170850211	0	75.08543441173006	44.99988568537015	0	0
1.18	0.02343815292963702	0.002857728986555737	2.583948958292693	0	0.9399999999999999	0	44.8782726086606	-10.0001560148677	0	60.08236729747616	1.048635131733526	-5.000009203976133	0	0	44.8782726086606	-10.0001560148677	0	60.08236729747616	1.048635131733526	-5.000009203976133	0	0	-0.03998277019488846	-0.005108903955964217	-0.01280975551694668	1.38056955176547	-6.488573530690207	-3.974044325959829	61.92888187244398	44.99988577075185	0	0	0	-14.23627632121031	0	75.08541141918133	44.99988577075185	0	0
1.19	0.02322154865247733	0.002670684574052308	2.583816669012366	0	0.9399999999999999	0	44.87830544868024	-10.00015586782908	0	60.08234988234174	1.048634827782091	-5.000009192479067	0	0	44.87830544868024	-10.00015586782908	0	60.08234988234174	1.048634827782091	-5.000009192479067	0	0	-0.03982269917358967	-0.004969247454501167	-0.01277714785786572	1.37260437757406	-6.475644318386088	-4.132262350832039	63.03540374774586	44.99988585609857	0	0	0	-14.2363818201694	0	75.08538842420559	44.99988585609857	0	0
1.2	0.02328201053826278	0.002537392558446611	2.583803185201452	0	0.9399999999999999	0	44.87833833087964	-10.0001557207018	0	60.08233244371785	1.048634523420687	-5.000009180978386	0	0	44.87833833087964	-10.0001557207018	0	60.08233244371785	1.048634523420687	-5.000009180978386	0	0	-0.03991298990467058	-0.004834364390984284	-0.0127964368814683	1.3637800126807	-6.459646280269711	-4.290929743669214	64.14787237078518	44.9998859415137	0	0	0	-14.23648746902416	0	75.08536539969502	44.9998859415137	0	0
1.21	0.004707849217559951	-0.001189803078038854	2.583732440250972	0	0.9399999999999999	0	44.87838582803199	-10.00015550794942	0	60.08230729191654	1.048634084438941	-5.000009164347749	0	0	44.87838582803199	-10.00015550794942	0	60.08230729191654	1.048634084438941	-5.000009164347749	0	0	-0.004780726835893862	0.00093952567905467	-0.004669276687088672	1.386324702288013	-6.657775542155707	-4.263890314348297	66.0403064691865	44.99988606501628	0	0	0	-14.23663992919066	0	75.08533214161935	44.99988606501628	0	0
1.22	0.01079137701842579	0.0002235709961558144	2.584512539777719	0	0.9399999999999999	0	44.87843021677632	-10.00015530938159	0	60.08228377711697	1.048633674028266	-5.000009148833247	0	0	44.87843021677632	-10.00015530938159	0	60.08228377711697	1.048633674028266	-5.000009148833247	0	0	-0.01501461917255355	-0.0001482902348620041	-0.008249923694958101	1.430157971073207	-6.855885111757082	-4.230002173212614	67.9236531695948	44.99988618032405	0	0	0	-14.23678246873221	0	75.08530106008806	44.99988618032405	0	0
1.23	-0.004679556431756981	-0.0006709965724178512	2.575883510268226	0	0.9399999999999999	0	44.87846165199668	-10.00015516882288	0	60.08226712712286	1.048633383431048	-5.000009137853942	0	0	44.87846165199668	-10.00015516882288	0	60.08226712712286	1.048633383431048	-5.000009137853942	0	0	0.002575800354005286	0.0009645189561760016	-0.0002220101882745251	1.431755673692554	-6.975591314042633	-4.76226148612385	67.69040998027326	44.99988626195951	0	0	0	-14.23688341072746	0	75.08527904876966	44.99988626195951	0	0
1.24	0.02319716613131152	0.00210229949685971	2.583873246577387	0	0.9399999999999999	0	44.87849408989209	-10.00015502418908	0	60.08224991537928	1.048633083029453	-5.000009126564236	0	0	44.87849408989209	-10.00015502418908	0	60.08224991537928	1.048633083029453	-5.000009126564236	0	0	-0.04069104961823413	-0.004096963147801022	-0.01376355830497919	1.435665546282321	-6.946984561184582	-4.914242815760633	68.81699225974893	44.99988634601009	0	0	0	-14.23698771463648	0	75.08525633536577	44.99988634601009	0	0
1.25	0.02416793550556469	0.001968672848726929	2.584299720357619	0	0.9399999999999999	0	44.87852694390553	-10.00015487776581	0	60.08223248491351	1.048632778810435	-5.000009115137631	0	0	44.87852694390553	-10.00015487776581	0	60.08223248491351	1.048632778810435	-5.000009115137631	0	0	-0.04104752232308313	-0.004131507631021988	-0.01392791952231121	1.42148251968228	-6.916433560493145	-5.078742032963973	69.94747318183821	44.99988643111396	0	0	0	-14.23709335705109	0	75.08523333059102	44.99988643111396	0	0
1.26	0.01047687455256607	0.002666418571302889	2.5799791242428	0	0.9399999999999999	0	44.87879924440332	-10.00015383808338	0	60.08208645228794	1.048630230060303	-5.000009038836708	0	0	44.87879924440332	-10.00015383808338	0	60.08208645228794	1.048630230060303	-5.000009038836708	0	0	-0.01856337004361104	0.0004131817064199736	-0.00973196221165744	1.414524143405575	-6.913428264800602	-5.087306382214279	69.94396591659856	44.99988706246672	0	0	0	-14.23799654745914	0	75.08504266240635	44.99988706246672	0	0
1.27	0.02787935116009864	0.01116113822883817	2.584937077888704	0	0.9399999999999999	0	44.87883006663408	-10.00015370133574	0	60.08207009942388	1.048629944648984	-5.000009028183255	0	0	44.87883006663408	-10.00015370133574	0	60.08207009942388	1.048629944648984	-5.000009028183255	0	0	-0.04736590125524875	-0.00717523428915721	-0.0167247153605824	1.524349052688611	-7.462440755287289	-5.232399885216753	71.22184943666113	44.99988714204682	0	0	0	-14.23809573900554	0	75.08502108030986	44.99988714204682	0	0
1.28	0.02498816213325954	0.001962201692949946	2.585123930906048	0	0.9399999999999999	0	44.87886274918836	-10.00015355652936	0	60.08205274889581	1.048629641825142	-5.00000901690662	0	0	44.87886274918836	-10.00015355652936	0	60.08205274889581	1.048629641825142	-5.00000901690662	0	0	-0.04217585224876708	-0.003526130176116245	-0.01502504514898618	1.501636260242041	-7.420205200516999	-5.406632901043666	72.35676904438158	44.99988722634306	0	0	0	-14.23820097286563	0	75.08499819559236	44.99988722634306	0	0
1.29	0.0089902137680556	0.001707909078920314	2.587616933811096	0	0.9399999999999999	0	44.87889156654482	-10.00015342879369	0	60.08203746249586	1.048629375027132	-5.000009006959991	0	0	44.87889156654482	-10.00015342879369	0	60.08203746249586	1.048629375027132	-5.000009006959991	0	0	-0.02409890786578897	-0.001232750867777054	-0.01281529561896293	1.494901065274835	-7.450275432026578	-5.769157437381794	72.81171946185313	44.99988730070172	0	0	0	-14.23829371637115	0	75.08497801733297	44.99988730070172	0	0
1.3	0.004949630248384051	0.00240658951491414	2.578376239750625	0	0.9399999999999999	0	44.87892505514039	-10.00015328035885	0	60.082019705939	1.048629065116751	-5.000008995403418	0	0	44.87892505514039	-10.00015328035885	0	60.082019705939	1.048629065116751	-5.000008995403418	0	0	-0.0171985343544694	0.001324887930310578	-0.006001832531034973	1.47333560327892	-7.475566790562213	-6.120609004555781	73.27890861781675	44.99988738711728	0	0	0	-14.23840146942289	0	75.08495456821578	44.99988738711728	0	0
1.31	0.02429977193889541	0.001096370141717023	2.584578650294354	0	0.9399999999999999	0	44.87895754347717	-10.0001531367014	0	60.08200245488959	1.048628764029139	-5.000008984225688	0	0	44.87895754347717	-10.0001531367014	0	60.08200245488959	1.048628764029139	-5.000008984225688	0	0	-0.04182323265979247	-0.002686104478122754	-0.01494331236513818	1.465179310411236	-7.428498185325866	-6.283371611363743	74.41129128832773	44.99988747079334	0	0	0	-14.23850612106133	0	75.08493181949154	44.99988747079334	0	0
1.32	0.01337055734914015	0.004927046999319216	2.580758222096847	0	0.9399999999999999	0	44.87898877579988	-10.00015299854567	0	60.0819858833883	1.04862847480188	-5.00000897347686	0	0	44.87898877579988	-10.00015299854567	0	60.0819858833883	1.04862847480188	-5.00000897347686	0	0	-0.02138888994681281	-0.002029839742373918	-0.007768735606680096	1.499580577347562	-7.68755698969965	-6.325124459991883	74.98177444331766	44.99988755126542	0	0	0	-14.2386066807948	0	75.08490995024357	44.99988755126542	0	0
